<!DOCTYPE svg PUBLIC "-//W3C//DTD SVG 1.1//EN" "https://www.w3.org/Graphics/SVG/1.1/DTD/svg11.dtd"><svg xmlns="http://www.w3.org/2000/svg" id="sfn-svg" class="sfn-workflow-graph" width="615" height="325">
    
    
<g transform="translate(12,19.180992126464844)"><g class="nodes"><g class="node-container" transform="translate(218.8663330078125,19)"><g class="node anchor"><circle class="shape" x="-16.180992126464844" y="-9" r="26.180992126464844"/><text class="label"><tspan xml:space="preserve" text-anchor="middle" alignment-baseline="central">Start</tspan></text></g></g><g class="node-container" transform="translate(304.4797592163086,271)"><g class="node anchor"><circle class="shape" x="-12.1796875" y="-9" r="22.1796875"/><text class="label"><tspan xml:space="preserve" text-anchor="middle" alignment-baseline="central">End</tspan></text></g></g><g class="node-container" transform="translate(218.8663330078125,82)"><g class="node state Task NotYetStarted"><rect class="shape" rx="5" ry="5" x="-59.7734375" y="-19" width="119.546875" height="38"/><text class="label"><tspan xml:space="preserve" text-anchor="middle" alignment-baseline="central">ValidateDragon</tspan></text></g></g><g class="node-container" transform="translate(481.5943298339844,145)"><g class="node state Task NotYetStarted"><rect class="shape" rx="5" ry="5" x="-53.9375" y="-19" width="107.875" height="38"/><text class="label"><tspan xml:space="preserve" text-anchor="middle" alignment-baseline="central">CreateDragon</tspan></text></g></g><g class="node-container" transform="translate(103.2529067993164,208)"><g class="node state Fail NotYetStarted"><rect class="shape" rx="5" ry="5" x="-103.2529067993164" y="-19" width="206.5058135986328" height="38"/><text class="label"><tspan xml:space="preserve" text-anchor="middle" alignment-baseline="central">AlertDragonValidationFailure</tspan></text></g></g><g class="node-container" transform="translate(304.4797592163086,208)"><g class="node state Fail NotYetStarted"><rect class="shape" rx="5" ry="5" x="-57.97394561767578" y="-19" width="115.94789123535156" height="38"/><text class="label"><tspan xml:space="preserve" text-anchor="middle" alignment-baseline="central">CatchAllFailure</tspan></text></g></g><g class="node-container" transform="translate(496.5943298339844,208)"><g class="node state Succeed NotYetStarted"><rect class="shape" rx="5" ry="5" x="-94.140625" y="-19" width="188.28125" height="38"/><text class="label"><tspan xml:space="preserve" text-anchor="middle" alignment-baseline="central">AlertCreateDragonSuccess</tspan></text></g></g></g><g class="edges"><g class="edge"><path class="path" marker-end="url(#arrowhead10)" d="M278.6397705078125,89.16658789316524L312.46553039550776,93.22215657763769C346.2912902832031,97.27772526211015,413.94281005859375,105.38886263105508,447.768569946289,111.52776464886087C481.5943298339844,117.66666666666666,481.5943298339844,121.83333333333333,481.5943298339843,123.91666666666666L481.5943298339844,126" style="fill: none;"/><defs><marker id="arrowhead10" viewBox="0 0 10 10" refX="9" refY="5" markerUnits="strokeWidth" markerWidth="8" markerHeight="6" orient="auto"><path d="M 0 0 L 10 5 L 0 10 z"/></marker></defs></g><g class="edge"><path class="path" marker-end="url(#arrowhead11)" d="M159.0928955078125,98.28585314870318L149.78623072306314,100.82154429058599C140.47956593831378,103.35723543246878,121.8662363688151,108.42861771623438,112.55957158406575,116.21430885811719C103.2529067993164,123.99999999999999,103.2529067993164,134.5,103.25290679931639,144.99999999999997C103.2529067993164,155.5,103.2529067993164,166,103.25290679931639,173.33333333333331C103.2529067993164,180.66666666666666,103.2529067993164,184.83333333333331,103.25290679931639,186.91666666666666L103.2529067993164,189" style="fill: none;"/><defs><marker id="arrowhead11" viewBox="0 0 10 10" refX="9" refY="5" markerUnits="strokeWidth" markerWidth="8" markerHeight="6" orient="auto"><path d="M 0 0 L 10 5 L 0 10 z"/></marker></defs></g><g class="edge"><path class="path" marker-end="url(#arrowhead12)" d="M218.8663330078125,101L218.8663330078125,103.08333333333331C218.8663330078125,105.16666666666666,218.8663330078125,109.33333333333331,218.8663330078125,116.66666666666666C218.8663330078125,123.99999999999999,218.8663330078125,134.5,218.8663330078125,144.99999999999997C218.8663330078125,155.5,218.8663330078125,166,224.52859664594055,173.33333333333331C230.1908602840686,180.66666666666666,241.51538756032468,184.83333333333331,247.17765119845274,186.91666666666666L252.8399148365808,189" style="fill: none;"/><defs><marker id="arrowhead12" viewBox="0 0 10 10" refX="9" refY="5" markerUnits="strokeWidth" markerWidth="8" markerHeight="6" orient="auto"><path d="M 0 0 L 10 5 L 0 10 z"/></marker></defs></g><g class="edge"><path class="path" marker-end="url(#arrowhead13)" d="M218.8663330078125,45.180992126464844L218.8663330078125,46.067493438720696C218.8663330078125,46.95399475097656,218.8663330078125,48.72699737548828,218.8663330078125,51.69683202107747C218.8663330078125,54.666666666666664,218.8663330078125,58.83333333333333,218.8663330078125,60.916666666666664L218.8663330078125,63" style="fill: none;"/><defs><marker id="arrowhead13" viewBox="0 0 10 10" refX="9" refY="5" markerUnits="strokeWidth" markerWidth="8" markerHeight="6" orient="auto"><path d="M 0 0 L 10 5 L 0 10 z"/></marker></defs></g><g class="edge"><path class="path" marker-end="url(#arrowhead14)" d="M103.2529067993164,227L103.25290679931639,229.0833333333333C103.2529067993164,231.16666666666663,103.2529067993164,235.33333333333331,133.13857739015623,242.09496189567835C163.02424798099605,248.8565904580234,222.79558916267567,258.2131809160468,252.68125975351552,262.89147614505845L282.56693034435534,267.56977137407017" style="fill: none;"/><defs><marker id="arrowhead14" viewBox="0 0 10 10" refX="9" refY="5" markerUnits="strokeWidth" markerWidth="8" markerHeight="6" orient="auto"><path d="M 0 0 L 10 5 L 0 10 z"/></marker></defs></g><g class="edge"><path class="path" marker-end="url(#arrowhead15)" d="M304.4797592163086,227L304.4797592163086,229.0833333333333C304.4797592163086,231.16666666666663,304.4797592163086,235.33333333333331,304.4797592163086,238.97005208333331C304.4797592163086,242.60677083333331,304.4797592163086,245.71354166666663,304.4797592163086,247.26692708333331L304.4797592163086,248.8203125" style="fill: none;"/><defs><marker id="arrowhead15" viewBox="0 0 10 10" refX="9" refY="5" markerUnits="strokeWidth" markerWidth="8" markerHeight="6" orient="auto"><path d="M 0 0 L 10 5 L 0 10 z"/></marker></defs></g><g class="edge"><path class="path" marker-end="url(#arrowhead16)" d="M490.6419488816034,164L491.63401237366685,166.08333333333331C492.6260758657304,168.16666666666666,494.6102028498574,172.33333333333331,495.6022663419208,176.5C496.5943298339844,180.66666666666666,496.5943298339844,184.83333333333331,496.5943298339843,186.91666666666666L496.5943298339844,189" style="fill: none;"/><defs><marker id="arrowhead16" viewBox="0 0 10 10" refX="9" refY="5" markerUnits="strokeWidth" markerWidth="8" markerHeight="6" orient="auto"><path d="M 0 0 L 10 5 L 0 10 z"/></marker></defs></g><g class="edge"><path class="path" marker-end="url(#arrowhead17)" d="M427.6568298339844,162.68768755578895L420.6368656158447,164.9897396298241C413.6169013977051,167.2917917038593,399.5769729614258,171.89589585192965,387.19607717524127,176.28128125929814C374.8151813890568,180.66666666666666,364.09331825296715,184.83333333333331,358.7323866849223,186.91666666666666L353.3714551168775,189" style="fill: none;"/><defs><marker id="arrowhead17" viewBox="0 0 10 10" refX="9" refY="5" markerUnits="strokeWidth" markerWidth="8" markerHeight="6" orient="auto"><path d="M 0 0 L 10 5 L 0 10 z"/></marker></defs></g><g class="edge"><path class="path" marker-end="url(#arrowhead18)" d="M496.5943298339844,227L496.5943298339843,229.0833333333333C496.5943298339844,231.16666666666663,496.5943298339844,235.33333333333331,468.22313866116116,242.06853934384353C439.85194748833794,248.8037453543537,383.10956514269157,258.1074907087074,354.7383739698684,262.7593633858843L326.3671827970452,267.41123606306115" style="fill: none;"/><defs><marker id="arrowhead18" viewBox="0 0 10 10" refX="9" refY="5" markerUnits="strokeWidth" markerWidth="8" markerHeight="6" orient="auto"><path d="M 0 0 L 10 5 L 0 10 z"/></marker></defs></g></g></g><style xmlns="http://www.w3.org/1999/xhtml">.node &gt; .shape {stroke: #555555;stroke-width: 0.6px;fill: #FFFFFF;} path {stroke: #555;background-color: #555;stroke-width: 1px;} .node.state.NotYetStarted &gt; .shape,.node.state.Container &gt; .shape {stroke-dasharray: 5 2;} .node.state.Failed &gt; .shape,rect.legend.Failed {fill: #DE322F;} .node.state.CaughtError &gt; .shape,rect.legend.CaughtError {fill: #FFA500;} .node.state.Succeeded &gt; .shape,rect.legend.Succeeded {fill: #2BD62E;} .node.state.InProgress &gt; .shape,rect.legend.InProgress {fill: #53c9ed;} .node.state.Cancelled &gt; .shape,rect.legend.Cancelled {fill: #dddddd;} .node.anchor &gt; .shape {fill: #FFDA75;} .node.state.hovered:not(.selected):not(.NotYetStarted) &gt; .shape,.node.selected &gt; .shape {stroke: #555555;stroke-width: 2px;} .node.state.Container.Failed &gt; .shape {fill: #EE9592;} .node.state.Container.CaughtError &gt; .shape {fill: #FFD27F;} .node.state.Container.Succeeded &gt; .shape {fill: #91EA9A;} .node.state.Container.InProgress &gt; .shape {fill :#A9E4F7;} .node.state.Container.Cancelled &gt; .shape {fill: #EEEEEE;} marker {fill: #555555;} .node.anchor,.node.state.NotYetStarted {cursor: default;} .node.state {cursor: pointer;} tspan .label {font-weight: normal;font-size: 12px;text-shadow: none;} </style></svg>